<?xml version="1.0" encoding="UTF-8"?>
<svg id="Layer_2" data-name="Layer 2" xmlns="http://www.w3.org/2000/svg" viewBox="0 0 252.9 252.9">
  <defs>
    <style>
      .cls-1 {
        fill: #fff;
      }

      .cls-2 {
        fill: #ed2929;
      }
    </style>
  </defs>
  <g id="Layer_1-2" data-name="Layer 1">
    <g>
      <path class="cls-1" d="M126.45,252.9C56.73,252.9,0,196.17,0,126.45S56.73,0,126.45,0s126.45,56.73,126.45,126.45-56.73,126.45-126.45,126.45Z"/>
      <path class="cls-2" d="M81.21,185.74c-3.6,0-7.19-1.37-9.94-4.12-5.49-5.49-5.49-14.38,0-19.87l90.47-90.47c5.48-5.49,14.38-5.49,19.87,0,5.49,5.49,5.49,14.38,0,19.87l-90.47,90.47c-2.75,2.74-6.34,4.12-9.94,4.12Z"/>
      <path class="cls-2" d="M171.69,185.74c-3.59,0-7.19-1.37-9.93-4.12l-90.47-90.47c-5.49-5.49-5.49-14.38,0-19.87s14.38-5.49,19.87,0l90.47,90.47c5.49,5.49,5.49,14.38,0,19.87-2.74,2.74-6.34,4.12-9.93,4.12Z"/>
    </g>
  </g>
</svg>