<?xml version="1.0" encoding="UTF-8"?>
<svg id="Layer_2" data-name="Layer 2" xmlns="http://www.w3.org/2000/svg" viewBox="0 0 298.3 328.61">
  <defs>
    <style>
      .cls-1 {
        fill: #fff;
      }
    </style>
  </defs>
  <g id="Layer_1-2" data-name="Layer 1">
    <path class="cls-1" d="M199.27,219.11c9.14,10,13.42,22.09,14.28,35.59,1.35,21.23-1.11,43.85.02,65.23l1.69,3.94,6.51,3.22-124.87,1.51,6.41-3.34c1.42-1.37,2.46-3.55,2.79-5.47,1.11-6.61.7-23.46.21-30.6-.16-2.38-1.11-4.66-.78-7.1-20.18,3.79-42.78,3.68-59.26-10.11-15.25-12.76-16.3-33.48-32.63-46.87-2.77-2.27-18.17-10.22-12.31-14.6,5.22-3.9,18.11-.06,23.47,2.69,16.36,8.41,19.73,26.01,34.76,34.99s30.84,7.26,45.97.52c2.94-10.57,5.7-20.92,14.24-28.49-.53-.74-.97-.97-1.86-1.12-4.44-.77-9.28-.98-13.89-1.86-44.37-8.5-73.14-30.44-80.76-76.74-4.96-30.12-1.62-61.24,20.57-83.77-7.15-17.74-5.32-39.02,1.83-56.51,22.44-1.98,41.53,11.58,60.24,21.69,35.33-9.26,72.59-8.98,107.95-.07,10.78-6.14,21.32-12.94,33.05-17.26,8.39-3.09,18.29-6.11,27.02-3.75,6.7,17.84,8.11,37.59,2.01,55.79,25.51,26.36,26.86,68.26,15.81,101.55-13.77,41.5-51.46,57.58-92.45,60.93Z"/>
  </g>
</svg>