<?xml version="1.0" encoding="UTF-8"?>
<svg id="Layer_2" data-name="Layer 2" xmlns="http://www.w3.org/2000/svg" viewBox="0 0 213.7 213.7">
  <defs>
    <style>
      .cls-1 {
        fill: #e55b25;
      }

      .cls-2 {
        fill: #fff4e5;
      }
    </style>
  </defs>
  <g id="Layer_5" data-name="Layer 5">
    <circle class="cls-2" cx="106.85" cy="106.85" r="106.85"/>
    <path class="cls-1" d="M155.89,135.33c-4.86-2.81-9.59-5.83-14.19-9.04-3.86-2.7-7.65-5.56-10.93-8.96-1.59-1.65-3.07-3.41-4.32-5.33-1.18-1.81-.29-2.83,1.66-3.48.44-.15,8.13-2.95,11.01-4.36,2.88-1.4,3.84-2.29,6.8-4.43,2.95-2.14,7.76-6.57,10.64-13.52,2.88-6.94.81-17.65,0-20.46-3.15-10.88-15.77-21.3-26.78-22.9-6.34-.92-11.77,1.17-17.89,2.06-16.46,2.38-32.32-10.66-48.72-4.68-6.09,2.22-11.12,7.15-13.6,13.13-.42,1.01-.76,2.05-1.03,3.11-1.48,5.91-.47,12.39,2.61,17.63,2.86,4.85,8.02,7.81,10.61,12.81,4.51,8.72.01,22.44-3.49,30.85-2.89,6.94-6.87,13.57-7.97,21.12-1.33,9.15,3.49,17.12,11.73,21.15,6.75,3.3,15.12,2.13,20.9-2.66,11.8-9.79,5.81-25,2.84-37.35-.58-2.4-1.98-5.85-.63-8.23.51-.9,1.53-1.42,2.56-1.54,1.03-.12,2.06.12,3.04.45,7.08,2.37,12.3,9.21,16.54,15.02,4.88,6.7,8.95,13.93,13.22,21.02,7.43,12.33,16.8,28.61,32.98,29.31,4.21.18,8.51-.92,11.96-3.35,4.74-3.34,7.57-9.13,7.61-14.93.07-11.12-8.47-17.4-17.15-22.42ZM120.71,86.02c-5.16,2.88-10.87,4.58-16.63,5.81-5.37,1.14-11.49,2.96-16.84.92-1-.38-1.96-.93-2.64-1.76-1.31-1.59-1.45-3.96-1.15-6.31.25-1.92.81-3.83,1.28-5.27,1.28-3.94,3.54-7.5,6.53-10.36,4.52-4.32,10.38-7.05,16.44-8.58,3.33-.84,6.79-1.33,10.21-.98,5.71.59,11.51,4.17,12.33,10.26.94,7.06-3.67,13.01-9.53,16.28Z"/>
  </g>
</svg>