<?xml version="1.0" encoding="UTF-8"?>
<svg id="Layer_2" data-name="Layer 2" xmlns="http://www.w3.org/2000/svg" viewBox="0 0 666.67 666.67">
  <defs>
    <style>
      .cls-1 {
        fill: #f5824d;
        fill-rule: evenodd;
      }
    </style>
  </defs>
  <g id="Layer_1-2" data-name="Layer 1">
    <path class="cls-1" d="M333.33,0c184.09,0,333.33,149.24,333.33,333.33s-149.24,333.33-333.33,333.33S0,517.43,0,333.33,149.24,0,333.33,0ZM333.33,66.67c-147.28,0-266.67,119.39-266.67,266.67s119.39,266.67,266.67,266.67,266.67-119.39,266.67-266.67S480.61,66.67,333.33,66.67ZM443.1,209.76l-176.43,176.43-43.1-43.1c-13.02-13.02-34.12-13.02-47.14,0-13.02,13.02-13.02,34.12,0,47.14l66.67,66.67c13.02,13.02,34.12,13.02,47.14,0l200-200c13.02-13.02,13.02-34.12,0-47.14-13.02-13.02-34.12-13.02-47.14,0Z"/>
  </g>
</svg>